<svg xmlns="http://www.w3.org/2000/svg" width="90" height="90" viewBox="0 0 90 90" aria-hidden="true"><path fill="#C21F0A" d="M45 0c24.853 0 45 20.147 45 45S69.853 90 45 90 0 69.853 0 45 20.147 0 45 0m0 6.28C23.615 6.28 6.28 23.614 6.28 45S23.614 83.72 45 83.72 83.72 66.386 83.72 45 66.386 6.28 45 6.28m24.041 27.398a3.14 3.14 0 0 1 2.3 5.84l-.016.007-.038.016-.138.058q-.18.075-.513.21c-.444.179-1.082.432-1.88.735-1.591.605-3.824 1.41-6.39 2.218-4.14 1.302-9.362 2.676-14.226 3.129v5.188c0 1.806.518 3.574 1.495 5.093l10.564 16.433A3.14 3.14 0 0 1 54.917 76L45 60.573 35.083 76a3.14 3.14 0 0 1-5.282-3.395l10.563-16.433a9.4 9.4 0 0 0 1.496-5.093v-5.188c-4.865-.453-10.087-1.827-14.226-3.13a118 118 0 0 1-6.39-2.217 95 95 0 0 1-2.393-.945l-.14-.058-.037-.016-.016-.006a3.14 3.14 0 0 1 2.45-5.782l.006.002.027.011.113.048.462.188c.407.165 1.005.402 1.758.688 1.506.572 3.62 1.336 6.044 2.099 4.932 1.55 10.83 2.994 15.482 2.994s10.55-1.443 15.481-2.995a111 111 0 0 0 6.045-2.098 92 92 0 0 0 2.22-.876l.113-.048.027-.01.005-.003 1.225 2.89zM45 12.558c6.358 0 11.511 5.154 11.512 11.511 0 6.358-5.154 11.512-11.512 11.512S33.488 30.427 33.488 24.07c0-6.357 5.154-11.51 11.512-11.51m0 6.279a5.233 5.233 0 1 0 0 10.465 5.233 5.233 0 0 0 0-10.465"/></svg>
