<svg xmlns="http://www.w3.org/2000/svg" width="80" height="101" viewBox="0 0 80 101" aria-hidden="true"><mask id="content-strategy-mask" width="80" height="101" x="0" y="0" fill="#000" maskUnits="userSpaceOnUse"><path fill="#fff" d="M0 0h80v101H0z"/><path fill-rule="evenodd" d="M57.483 57.152a1.434 1.434 0 0 1 1.558-2.386c.18.09.338.214.465.367l2.071 2.02 2.072-2.032a1.438 1.438 0 0 1 2.497 1.005 1.43 1.43 0 0 1-.474 1.026l-2.023 2.055 2.059 2.055a1.433 1.433 0 0 1-.464 2.342 1.43 1.43 0 0 1-1.56-.311l-2.07-2.067-2.072 2.067a1.426 1.426 0 0 1-2.023 0 1.434 1.434 0 0 1 0-2.031l2.071-2.055zm-28.05-25.709a1.433 1.433 0 0 1 0-2.03 1.46 1.46 0 0 1 2.036 0l2.059 2.066 2.071-2.067a1.439 1.439 0 0 1 2.398 1.034c.008.368-.126.725-.375.997l-2.059 2.067 2.06 2.055a1.432 1.432 0 0 1-1.023 2.399 1.44 1.44 0 0 1-1.001-.368l-2.071-2.067-2.06 2.067a1.46 1.46 0 0 1-2.034 0 1.433 1.433 0 0 1 0-2.031l2.07-2.055zM14.769 45.875a1.43 1.43 0 0 1 0-2.031 1.42 1.42 0 0 1 1.56-.312q.263.11.464.312l2.07 2.066 2.072-2.066a1.424 1.424 0 0 1 2.023 0 1.433 1.433 0 0 1 0 2.03l-2.071 2.055 2.059 2.055a1.434 1.434 0 0 1 .097 2.116 1.44 1.44 0 0 1-2.12-.097l-2.06-2.019-2.07 2.031a1.436 1.436 0 0 1-2.366-1.566c.081-.177.198-.335.342-.465l2.071-2.067-2.07-2.054zm17.958 20.201a1.42 1.42 0 0 1 0-2.019 1.436 1.436 0 0 1 2.035 0l2.06 2.067 2.07-2.067a1.438 1.438 0 0 1 2.319 1.049c.02.35-.09.695-.308.97l-2.059 2.067 2.06 2.067a1.435 1.435 0 0 1 .42 1.62 1.43 1.43 0 0 1-1.405.914 1.44 1.44 0 0 1-1.039-.515l-2.07-2.067-2.06 2.067a1.44 1.44 0 0 1-2.035 0 1.42 1.42 0 0 1 0-2.02l2.07-2.066-2.07-2.067zm-12.175 6.87a2.456 2.456 0 0 0-4.183 1.738 2.445 2.445 0 0 0 1.51 2.26 2.46 2.46 0 0 0 3.21-1.319 2.44 2.44 0 0 0-.537-2.68M52.718 24.55a2.455 2.455 0 0 0-4.183 1.738 2.45 2.45 0 0 0 1.511 2.261 2.46 2.46 0 0 0 3.21-1.32 2.445 2.445 0 0 0-.538-2.679m-1.736-3.584a5.34 5.34 0 0 1 2.97.879 5.32 5.32 0 0 1 2.296 5.452 5.3 5.3 0 0 1-1.45 2.732 5.33 5.33 0 0 1-5.81 1.168 5.309 5.309 0 0 1-3.297-4.915 5.32 5.32 0 0 1 1.564-3.755 5.35 5.35 0 0 1 3.763-1.56zm-3.495 20.477 2.155-2.055v11.36a4.26 4.26 0 0 1-1.04 2.665 4.28 4.28 0 0 1-2.492 1.41l-22.65 2.986a7.2 7.2 0 0 0-4.237 2.379 7.16 7.16 0 0 0-1.75 4.526v4.85a5.33 5.33 0 0 0-3.017 2.204 5.31 5.31 0 0 0 .953 6.923 5.334 5.334 0 0 0 7.003 0 5.31 5.31 0 0 0 .953-6.923 5.33 5.33 0 0 0-3.018-2.203v-4.85c.03-.99.405-1.94 1.06-2.683a4.26 4.26 0 0 1 2.532-1.391l22.65-2.987a7.2 7.2 0 0 0 4.237-2.379 7.16 7.16 0 0 0 1.749-4.526V39.59l1.867 2.03a1.426 1.426 0 0 0 2.377-1.006 1.42 1.42 0 0 0-.354-.988l-4.321-4.504a1.425 1.425 0 0 0-2.167 0l-4.513 4.313a1.434 1.434 0 0 0 1.516 2.412c.18-.086.34-.207.47-.358zm8.81 31.502a2.46 2.46 0 0 1 .175 3.306 2.466 2.466 0 0 1-3.28.489 2.46 2.46 0 0 1-1.096-2.05 2.46 2.46 0 0 1 1.519-2.269 2.47 2.47 0 0 1 2.683.524m-1.735-3.583a5.33 5.33 0 0 1 4.955 3.245 5.305 5.305 0 0 1-1.119 5.808 5.33 5.33 0 0 1-5.807 1.182 5.309 5.309 0 0 1-3.308-4.907 5.3 5.3 0 0 1 1.56-3.76 5.33 5.33 0 0 1 3.767-1.557zM6.112 17.478h7.902a4.8 4.8 0 0 0 3.419-1.212 4.78 4.78 0 0 0 1.585-3.256V5.675zM21.893 3.87v9.139a7.63 7.63 0 0 1-2.43 5.278 7.66 7.66 0 0 1-5.448 2.045H3.874v72.312c.08 1.251.65 2.42 1.586 3.256a4.8 4.8 0 0 0 3.418 1.212h61.87a4.8 4.8 0 0 0 3.426-1.207 4.78 4.78 0 0 0 1.59-3.26V8.325a4.78 4.78 0 0 0-1.594-3.252 4.8 4.8 0 0 0-3.422-1.203zm-8.668 96.098c2.185 0 3.4.062 4.654 0h52.87a7.57 7.57 0 0 0 5.448-2.045c1.475-1.372 2.429-3.738 2.429-5.279l-.012-75.765c-.08-1.25.012-1.386.012-3.255v-1.213 80.233c0 1.541-.954 3.907-2.43 5.279a7.66 7.66 0 0 1-5.447 2.044zM78.625 9.557V8.363a7.63 7.63 0 0 0-2.417-5.302 7.66 7.66 0 0 0-5.46-2.057H20.467a1.4 1.4 0 0 0-1.066.477L1.576 17.73A1.42 1.42 0 0 0 1 18.923v73.722a7.63 7.63 0 0 0 2.43 5.279 7.66 7.66 0 0 0 5.447 2.044h4.346c2.185.018 2.633.062 4.654 0h52.87a7.66 7.66 0 0 0 5.448-2.044s1.04-1.15 1.498-2.019c.618-1.17.931-3.26.931-3.26l-.012-75.765c-.081-2.01.012-.943.012-3.255z" clip-rule="evenodd"/></mask><path fill="#C21F0A" fill-rule="evenodd" d="M57.483 57.152a1.434 1.434 0 0 1 1.558-2.386c.18.09.338.214.465.367l2.071 2.02 2.072-2.032a1.438 1.438 0 0 1 2.497 1.005 1.43 1.43 0 0 1-.474 1.026l-2.023 2.055 2.059 2.055a1.433 1.433 0 0 1-.464 2.342 1.43 1.43 0 0 1-1.56-.311l-2.07-2.067-2.072 2.067a1.426 1.426 0 0 1-2.023 0 1.434 1.434 0 0 1 0-2.031l2.071-2.055zm-28.05-25.709a1.433 1.433 0 0 1 0-2.03 1.46 1.46 0 0 1 2.036 0l2.059 2.066 2.071-2.067a1.439 1.439 0 0 1 2.398 1.034c.008.368-.126.725-.375.997l-2.059 2.067 2.06 2.055a1.432 1.432 0 0 1-1.023 2.399 1.44 1.44 0 0 1-1.001-.368l-2.071-2.067-2.06 2.067a1.46 1.46 0 0 1-2.034 0 1.433 1.433 0 0 1 0-2.031l2.07-2.055zM14.769 45.875a1.43 1.43 0 0 1 0-2.031 1.42 1.42 0 0 1 1.56-.312q.263.11.464.312l2.07 2.066 2.072-2.066a1.424 1.424 0 0 1 2.023 0 1.433 1.433 0 0 1 0 2.03l-2.071 2.055 2.059 2.055a1.434 1.434 0 0 1 .097 2.116 1.44 1.44 0 0 1-2.12-.097l-2.06-2.019-2.07 2.031a1.436 1.436 0 0 1-2.366-1.566c.081-.177.198-.335.342-.465l2.071-2.067-2.07-2.054zm17.958 20.201a1.42 1.42 0 0 1 0-2.019 1.436 1.436 0 0 1 2.035 0l2.06 2.067 2.07-2.067a1.438 1.438 0 0 1 2.319 1.049c.02.35-.09.695-.308.97l-2.059 2.067 2.06 2.067a1.435 1.435 0 0 1 .42 1.62 1.43 1.43 0 0 1-1.405.914 1.44 1.44 0 0 1-1.039-.515l-2.07-2.067-2.06 2.067a1.44 1.44 0 0 1-2.035 0 1.42 1.42 0 0 1 0-2.02l2.07-2.066-2.07-2.067zm-12.175 6.87a2.456 2.456 0 0 0-4.183 1.738 2.445 2.445 0 0 0 1.51 2.26 2.46 2.46 0 0 0 3.21-1.319 2.44 2.44 0 0 0-.537-2.68M52.718 24.55a2.455 2.455 0 0 0-4.183 1.738 2.45 2.45 0 0 0 1.511 2.261 2.46 2.46 0 0 0 3.21-1.32 2.445 2.445 0 0 0-.538-2.679m-1.736-3.584a5.34 5.34 0 0 1 2.97.879 5.32 5.32 0 0 1 2.296 5.452 5.3 5.3 0 0 1-1.45 2.732 5.33 5.33 0 0 1-5.81 1.168 5.309 5.309 0 0 1-3.297-4.915 5.32 5.32 0 0 1 1.564-3.755 5.35 5.35 0 0 1 3.763-1.56zm-3.495 20.477 2.155-2.055v11.36a4.26 4.26 0 0 1-1.04 2.665 4.28 4.28 0 0 1-2.492 1.41l-22.65 2.986a7.2 7.2 0 0 0-4.237 2.379 7.16 7.16 0 0 0-1.75 4.526v4.85a5.33 5.33 0 0 0-3.017 2.204 5.31 5.31 0 0 0 .953 6.923 5.334 5.334 0 0 0 7.003 0 5.31 5.31 0 0 0 .953-6.923 5.33 5.33 0 0 0-3.018-2.203v-4.85c.03-.99.405-1.94 1.06-2.683a4.26 4.26 0 0 1 2.532-1.391l22.65-2.987a7.2 7.2 0 0 0 4.237-2.379 7.16 7.16 0 0 0 1.749-4.526V39.59l1.867 2.03a1.426 1.426 0 0 0 2.377-1.006 1.42 1.42 0 0 0-.354-.988l-4.321-4.504a1.425 1.425 0 0 0-2.167 0l-4.513 4.313a1.434 1.434 0 0 0 1.516 2.412c.18-.086.34-.207.47-.358zm8.81 31.502a2.46 2.46 0 0 1 .175 3.306 2.466 2.466 0 0 1-3.28.489 2.46 2.46 0 0 1-1.096-2.05 2.46 2.46 0 0 1 1.519-2.269 2.47 2.47 0 0 1 2.683.524m-1.735-3.583a5.33 5.33 0 0 1 4.955 3.245 5.305 5.305 0 0 1-1.119 5.808 5.33 5.33 0 0 1-5.807 1.182 5.309 5.309 0 0 1-3.308-4.907 5.3 5.3 0 0 1 1.56-3.76 5.33 5.33 0 0 1 3.767-1.557zM6.112 17.478h7.902a4.8 4.8 0 0 0 3.419-1.212 4.78 4.78 0 0 0 1.585-3.256V5.675zM21.893 3.87v9.139a7.63 7.63 0 0 1-2.43 5.278 7.66 7.66 0 0 1-5.448 2.045H3.874v72.312c.08 1.251.65 2.42 1.586 3.256a4.8 4.8 0 0 0 3.418 1.212h61.87a4.8 4.8 0 0 0 3.426-1.207 4.78 4.78 0 0 0 1.59-3.26V8.325a4.78 4.78 0 0 0-1.594-3.252 4.8 4.8 0 0 0-3.422-1.203zm-8.668 96.098c2.185 0 3.4.062 4.654 0h52.87a7.57 7.57 0 0 0 5.448-2.045c1.475-1.372 2.429-3.738 2.429-5.279l-.012-75.765c-.08-1.25.012-1.386.012-3.255v-1.213 80.233c0 1.541-.954 3.907-2.43 5.279a7.66 7.66 0 0 1-5.447 2.044zM78.625 9.557V8.363a7.63 7.63 0 0 0-2.417-5.302 7.66 7.66 0 0 0-5.46-2.057H20.467a1.4 1.4 0 0 0-1.066.477L1.576 17.73A1.42 1.42 0 0 0 1 18.923v73.722a7.63 7.63 0 0 0 2.43 5.279 7.66 7.66 0 0 0 5.447 2.044h4.346c2.185.018 2.633.062 4.654 0h52.87a7.66 7.66 0 0 0 5.448-2.044s1.04-1.15 1.498-2.019c.618-1.17.931-3.26.931-3.26l-.012-75.765c-.081-2.01.012-.943.012-3.255z" clip-rule="evenodd"/><path fill="#C21F0A" d="m70.748 99.969.012-.4h-.012zm7.877-7.324h.4zM17.878 99.97v.399h52.87v-.8h-52.87zm58.318-2.045.272.293c.787-.731 1.422-1.715 1.861-2.707.438-.99.696-2.023.696-2.865h-.8c0 .7-.22 1.62-.627 2.541s-.986 1.804-1.674 2.445zm2.429-5.279h.4l-.012-75.765h-.8l.012 75.765zm-2.43 5.279-.271-.293a7.26 7.26 0 0 1-5.164 1.938l-.012.4-.013.399a8.06 8.06 0 0 0 5.733-2.151zM57.484 57.152l.559-.573-.023-.022-.025-.02zm2.023-2.019-.614.513.026.031.03.029zm2.071 2.02-.558.572.56.546.559-.548zm2.072-2.032.56.571.015-.015.015-.016zm2.023 2.031-.535-.595-.018.017-.017.017zm-2.023 2.055-.57-.561-.558.566.562.561zm2.059 2.055-.566.566.002.001zm.422 1.015h.8zm-.422 1.016-.564-.568-.004.004zm-2.024 0 .568-.564-.002-.003zm-2.07-2.067.564-.566-.565-.564-.565.564zm-2.072 2.067-.565-.567-.002.003zm-1.011.42v.8zm-1.012-.42.568-.564-.004-.004zm-.422-1.016h.8zm.422-1.015-.563-.568h-.001zm2.071-2.055.564.568.577-.573-.582-.568zM29.434 31.443l.565-.566-.001-.001zm-.423-1.015h.8zm.423-1.016-.557-.574-.008.007zM30.45 29v.8zm1.018.412.567-.564-.01-.01zm2.059 2.067-.567.565.565.567.567-.566zm2.071-2.067-.535-.595-.015.014-.015.015zm2.023 2.031.567.565.012-.012.012-.013zm-2.059 2.067-.567-.565-.564.567.566.564zm2.06 2.055.59-.54-.013-.013-.013-.014zm-2.024 2.03-.565.567.015.015.015.014zm-2.071-2.066.565-.566-.567-.566-.565.567zm-2.06 2.067.558.574.01-.01zm-2.034 0-.565.567.008.007zm-.423-1.016h.8zm.423-1.015-.564-.568zm2.07-2.055.564.568.57-.566-.568-.568zM14.769 45.875l-.564.567 1.364 1.356v-1.923zm0-2.031.564.567.004-.003zm1.012-.42v-.8zm1.012.42-.568.564.003.002zm2.07 2.066-.564.567.565.564.565-.564zm2.072-2.066.565.566.002-.002zm1.011-.42v-.8zm1.012.42-.567.564.003.003zm0 2.03.563.569.001-.001zm-2.071 2.055-.564-.568-.57.567.569.568zm2.059 2.055-.565.566.026.026.028.024zm-2.023 2.02.614-.513-.026-.031-.028-.028zm-2.06-2.02.56-.571-.56-.55-.56.55zm-2.07 2.031-.56-.571-.016.015-.015.017zm-2.024-2.03.535.594.016-.014.014-.014zm2.071-2.068.566.567.569-.568-.571-.566zm-2.07-2.054.563-.568-1.364-1.353v1.92zm17.957 20.213v.8h1.946l-1.383-1.369zm0-2.019.563.569.003-.004zm1.017-.421v.8zm1.018.421.567-.564-.001-.001zm2.06 2.067-.568.565.566.567.566-.566zm2.07-2.067-.492-.63-.038.03-.035.034zm2.011 2.02.567.564.032-.032.028-.036zm-2.059 2.066-.566-.565-.563.565.563.565zm2.06 2.067-.567.564.026.027.03.024zm-2.024 2.019.614-.513-.023-.028-.026-.026zm-2.07-2.067.564-.566-.566-.566-.566.567zm-2.06 2.067.566.565zm-1.018.421v.8zm-1.017-.421.566-.566-.004-.003zm-.422-1.01h-.8zm.422-1.01.563.57.002-.003zm2.07-2.066.566.566.567-.566-.567-.566zm-2.07-2.067v-.8H30.78l1.369 1.367zm-12.163 6.87.563-.569zm-4.183 1.738h.8zm4.183 1.738.563.568zM52.718 24.55l.563-.568zm0 3.476.563.569zm-1.736-7.06-.005-.8.006 1.6zm-5.29 5.316-.8-.001v.001zm5.326-5.316.002.8-.002-1.6zm-3.531 20.477-.552-.58-.048.046-.04.053zm2.155-2.055h.8v-1.869l-1.352 1.29zm0 11.36.8.025v-.024zm-3.532 4.075.105.793.017-.002.016-.003zm-22.65 2.986-.105-.793-.014.002-.014.002zm-5.986 6.905-.8-.018v.018zm0 4.85.215.771.585-.163v-.607zm2.873 0h-.8v.608l.585.163zm0-4.85-.8-.024v.024zm3.592-4.073-.105-.794-.01.002-.01.001zm22.65-2.987.105.793.014-.002.014-.002zm5.986-6.905.8.018v-.018zm0-11.158.589-.542-1.39-1.51v2.052zm1.867 2.03-.589.542.026.028.029.026zm2.023-1.994.601-.53-.011-.012-.012-.012zm-4.321-4.504-.608.52.015.017.015.017zm-2.167 0 .553.578.029-.028.026-.03zm-4.513 4.313.5.623.028-.021.024-.024zm1.987 2.054.604.525.019-.022.016-.022zm8.847 31.455.562-.568zm-4.202 1.745-.8-.002zm2.466-5.328-.007-.8-.187 1.576zm-5.28 5.328h-.8v.002zm5.328-5.317v.8l.194-1.576zM6.113 17.478l-.54-.59-1.52 1.39h2.06zm7.901 0 .038-.8h-.038zm5.004-4.468.799.051.001-.026v-.025zm0-7.335h.8V3.859l-1.34 1.225zm2.874-1.804v-.8h-.8v.8zm0 9.139.799.032v-.032zm-7.878 7.323.025-.8h-.025zm-10.14 0v-.8h-.8v.8zm0 72.312h-.8v.026l.002.025zm5.004 4.468v-.8H8.86l-.02.001zm61.87 0 .04-.799h-.04zm5.016-4.468.798.051.002-.025v-.026zm0-84.318h.8V8.3l-.002-.026zM70.748 3.87v.8h.02l.02-.001zm-52.87 96.098.04.798-.064-1.598zm52.87 0 .024-.8h-.024zm5.448-2.045.544.586.026-.024.023-.026zm2.429-5.279.791.119.009-.06v-.059zm-.012-75.765-.798.052 1.597-.084zm.012-8.517h.8v-.029zm-7.877-7.36v.8h.024zm-50.281 0-.006.8h.006zm-1.066.478.54.592.033-.03.03-.035zM1.576 17.73l.476.643.032-.025.03-.027zM1 18.923h.8v-.03zm0 73.722h-.8v.032zm7.877 7.324v-.8h-.024zm68.816-4.063-.707-.374zm-20.21-38.754.51-.615a.6.6 0 0 1-.162-.205l-.716.356-.716.357c.138.278.333.524.572.722zm-.368-.464.716-.356a.6.6 0 0 1-.066-.253l-.799.037-.8.036c.015.31.094.615.233.893zm-.149-.572.8-.037a.6.6 0 0 1 .041-.257l-.745-.29-.746-.29c-.112.29-.163.6-.15.91zm.096-.584.745.29a.6.6 0 0 1 .143-.22l-.565-.565-.565-.567c-.22.22-.391.483-.504.772zm.323-.495.565.566a.6.6 0 0 1 .22-.143l-.288-.746-.289-.746c-.29.112-.553.283-.773.502zm.497-.323.288.746a.6.6 0 0 1 .26-.043l.037-.799.036-.799c-.31-.014-.62.036-.91.149zm.585-.096-.037.8a.6.6 0 0 1 .255.065l.355-.716.356-.717a2.2 2.2 0 0 0-.893-.23zm.573.148-.355.717q.121.06.206.163l.614-.513.615-.512a2.2 2.2 0 0 0-.724-.571zm.465.367-.558.573 2.071 2.019.558-.573.559-.573-2.071-2.019zm2.071 2.02.56.57 2.072-2.03-.56-.572-.56-.571-2.072 2.03zm2.072-2.032.59.54a.6.6 0 0 1 .207-.15l-.33-.73-.33-.728a2.2 2.2 0 0 0-.728.529zm.467-.34.33.73a.6.6 0 0 1 .25-.057l-.017-.8-.017-.8c-.303.007-.601.074-.877.2zm.563-.127.017.8a.6.6 0 0 1 .253.046l.299-.742.298-.743a2.2 2.2 0 0 0-.884-.161zm.569.103-.3.743q.122.049.214.14l.567-.564.567-.564a2.2 2.2 0 0 0-.75-.497zm.481.32-.567.564q.091.092.14.213l.744-.295.743-.296a2.2 2.2 0 0 0-.493-.751zm.317.482-.744.295q.048.121.044.25l.8.023.8.021a2.2 2.2 0 0 0-.157-.885zm.1.568-.8-.023a.6.6 0 0 1-.058.248l.727.336.725.336a2.2 2.2 0 0 0 .206-.876zm-.132.56-.726-.335a.6.6 0 0 1-.151.205l.535.595.535.595c.225-.202.406-.448.534-.723zm-.342.465-.57-.561-2.024 2.055.57.56.57.562 2.024-2.055zm-2.023 2.055-.566.566 2.06 2.055.565-.566.565-.566-2.06-2.055zm2.059 2.055-.564.567q.09.09.138.206l.738-.308.739-.307a2.2 2.2 0 0 0-.487-.726zm.312.465-.738.308a.6.6 0 0 1 .048.242h1.6c0-.294-.058-.585-.171-.857zm.11.55h-.8a.6.6 0 0 1-.048.243l.738.307.739.307c.113-.271.171-.563.171-.857zm-.11.55-.738-.307a.6.6 0 0 1-.138.205l.564.568.564.567c.208-.207.374-.454.487-.726zm-.312.466-.568-.564a.6.6 0 0 1-.203.136l.307.739.307.739c.271-.113.517-.278.724-.487zm-.464.31-.307-.738a.6.6 0 0 1-.241.048v1.6c.294 0 .584-.058.855-.17zm-.548.11v-.8a.6.6 0 0 1-.24-.048l-.308.739-.307.739c.27.112.562.17.855.17zm-.548-.11.307-.738a.6.6 0 0 1-.203-.136l-.568.564-.567.563c.207.209.453.374.724.487zm-.464-.31.566-.567-2.072-2.066-.565.566-.565.566 2.071 2.067zm-2.07-2.067-.566-.566-2.07 2.066.564.567.565.566 2.071-2.067zm-2.072 2.067-.567-.564a.6.6 0 0 1-.204.136l.308.739.307.739c.27-.113.517-.278.724-.487zm-.463.31-.308-.738a.6.6 0 0 1-.24.048v1.6c.293 0 .584-.058.855-.17zm-.548.11v-.8a.6.6 0 0 1-.241-.048l-.307.739-.307.739c.27.112.561.17.855.17zm-.548-.11.307-.738a.6.6 0 0 1-.203-.136l-.568.564-.567.563c.206.209.453.374.724.487zm-.464-.31.564-.568a.6.6 0 0 1-.138-.205l-.739.307-.738.307c.113.272.278.519.487.726zm-.313-.466.739-.307a.6.6 0 0 1-.048-.243h-1.6c0 .294.058.586.17.857zm-.11-.55h.8a.6.6 0 0 1 .049-.242l-.739-.308-.738-.307a2.2 2.2 0 0 0-.172.857zm.11-.55.739.308a.6.6 0 0 1 .138-.206l-.564-.567-.564-.568a2.2 2.2 0 0 0-.487.726zm.313-.465.564.568 2.07-2.055-.563-.568-.563-.568-2.071 2.055zm2.071-2.055.559-.573-2.107-2.055-.559.573-.558.573 2.107 2.055zM29.434 31.443l.564-.567a.6.6 0 0 1-.139-.206l-.738.308-.739.307c.113.271.279.518.487.726zm-.313-.465.739-.308a.6.6 0 0 1-.049-.242h-1.6c0 .294.058.585.171.857zm-.11-.55h.8a.6.6 0 0 1 .049-.243l-.74-.307-.738-.307a2.2 2.2 0 0 0-.17.857zm.11-.55.739.307a.6.6 0 0 1 .138-.205l-.564-.568-.565-.567a2.2 2.2 0 0 0-.487.726zm.313-.466.556.575a.66.66 0 0 1 .461-.187v-1.6c-.587 0-1.152.229-1.574.638zM30.45 29v.8c.173 0 .338.067.461.187l.557-.575.556-.574a2.26 2.26 0 0 0-1.574-.638zm1.018.412-.567.565 2.06 2.067.566-.565.567-.565-2.06-2.066zm2.059 2.067.565.566 2.071-2.066-.565-.567-.565-.566-2.071 2.067zm2.071-2.067.535.595a.64.64 0 0 1 .444-.163l.022-.8.022-.8a2.24 2.24 0 0 0-1.558.573zm1.001-.368-.022.8c.164.005.32.072.435.187l.566-.564.567-.565a2.24 2.24 0 0 0-1.524-.657zm.98.423-.567.564c.115.116.18.27.184.433l.8-.018.8-.017a2.23 2.23 0 0 0-.65-1.527zm.417.98-.8.017a.63.63 0 0 1-.166.44l.591.54.59.539c.388-.424.597-.98.585-1.554zm-.375.996-.566-.564-2.06 2.066.567.565.567.565 2.059-2.067zm-2.059 2.067-.565.566 2.06 2.055.564-.566.565-.566-2.059-2.055zm2.06 2.055-.591.54c.11.12.169.277.165.44l.8.017.8.017a2.23 2.23 0 0 0-.584-1.554zm.374.997-.8-.018a.63.63 0 0 1-.184.433l.566.564.567.565c.405-.407.638-.953.65-1.527zm-.418.98-.566-.565a.64.64 0 0 1-.435.187l.022.8.022.8a2.24 2.24 0 0 0 1.524-.658zm-.979.422-.022-.8a.64.64 0 0 1-.444-.163l-.535.595-.535.595c.427.383.985.588 1.558.572zm-1.001-.368.565-.567-2.071-2.066-.565.566-.565.566 2.07 2.067zm-2.071-2.067-.567-.565-2.059 2.067.567.565.566.564 2.06-2.066zm-2.06 2.067-.556-.575a.66.66 0 0 1-.46.187v1.6c.587 0 1.151-.229 1.573-.638zm-1.017.412v-.8a.66.66 0 0 1-.46-.187l-.557.575-.557.574c.422.41.987.638 1.574.638zm-1.017-.412.564-.568a.6.6 0 0 1-.139-.205l-.738.307-.739.307c.113.272.279.519.487.726zm-.313-.466.739-.307a.6.6 0 0 1-.049-.243h-1.6c0 .294.058.586.171.857zm-.11-.55h.8q0-.125.049-.242l-.74-.307-.738-.308a2.2 2.2 0 0 0-.17.857zm.11-.55.739.308a.6.6 0 0 1 .138-.206l-.564-.567-.565-.567a2.2 2.2 0 0 0-.487.725zm.313-.465.563.568 2.071-2.055-.563-.568-.564-.568-2.07 2.055zm2.07-2.055.566-.566-2.071-2.067-.565.566-.566.567 2.072 2.066zM14.769 45.875l.564-.568a.6.6 0 0 1-.138-.205l-.738.307-.739.307c.113.272.279.518.487.726zm-.312-.466.738-.307a.6.6 0 0 1-.048-.243h-1.6c0 .294.058.586.171.857zm-.11-.55h.8a.6.6 0 0 1 .048-.242l-.738-.308-.739-.307a2.2 2.2 0 0 0-.171.857zm.11-.55.738.308a.6.6 0 0 1 .138-.206l-.564-.567-.564-.568a2.2 2.2 0 0 0-.487.726zm.312-.465.568.564a.6.6 0 0 1 .203-.137l-.307-.739-.307-.738a2.2 2.2 0 0 0-.724.486zm.464-.312.307.74a.6.6 0 0 1 .241-.049v-1.6c-.293 0-.584.058-.855.17zm.548-.109v.8q.126 0 .24.048l.308-.739.307-.738a2.2 2.2 0 0 0-.855-.17zm.548.11-.307.738a.6.6 0 0 1 .203.137l.568-.564.567-.564a2.2 2.2 0 0 0-.724-.486zm.464.31-.566.567 2.072 2.067.565-.566.565-.567-2.071-2.067zm2.07 2.067.566.567 2.07-2.067-.564-.566-.565-.567-2.071 2.067zm2.072-2.066.567.564a.6.6 0 0 1 .203-.137l-.307-.739-.307-.738a2.2 2.2 0 0 0-.724.486zm.463-.312.308.74a.6.6 0 0 1 .24-.049v-1.6c-.293 0-.584.058-.855.17zm.548-.109v.8q.126 0 .241.048l.307-.739.308-.738a2.2 2.2 0 0 0-.856-.17zm.548.11-.307.738a.6.6 0 0 1 .204.137l.567-.564.567-.564a2.2 2.2 0 0 0-.724-.486zm.464.31-.564.568q.09.09.138.206l.739-.308.738-.307a2.2 2.2 0 0 0-.487-.726zm.313.466-.739.308a.6.6 0 0 1 .049.242h1.6c0-.294-.059-.585-.172-.857zm.11.55h-.8a.6.6 0 0 1-.049.243l.739.307.738.307c.113-.271.172-.563.172-.857zm-.11.55-.739-.307a.6.6 0 0 1-.138.205l.564.568.564.567c.209-.208.374-.454.487-.726zm-.313.466-.564-.568-2.07 2.054.563.568.563.568 2.071-2.054zm-2.071 2.054-.565.567 2.059 2.054.565-.566.565-.566-2.059-2.055zm2.059 2.055-.511.616a.6.6 0 0 1 .162.205l.716-.357.717-.356a2.2 2.2 0 0 0-.573-.723zm.367.464-.716.357q.06.118.066.252l.799-.036.8-.037a2.2 2.2 0 0 0-.232-.892zm.149.573-.8.036a.6.6 0 0 1-.041.258l.745.29.746.29c.113-.29.163-.6.15-.91zm-.096.583-.745-.29a.6.6 0 0 1-.143.22l.565.566.565.566c.22-.22.392-.482.504-.772zm-.323.496-.565-.567a.6.6 0 0 1-.22.144l.288.746.289.746c.29-.112.553-.283.773-.503zm-.497.323-.288-.746a.6.6 0 0 1-.26.042l-.037.8-.036.798c.31.014.62-.036.91-.148zm-.585.095.037-.799a.6.6 0 0 1-.255-.066l-.355.717-.356.717c.279.138.583.216.893.23zm-.573-.148.355-.717a.6.6 0 0 1-.206-.162l-.614.512-.615.513c.2.238.446.433.724.57zm-.465-.367.56-.571-2.06-2.019-.56.571-.56.572 2.06 2.018zm-2.06-2.019-.56-.571-2.07 2.03.56.572.56.571 2.07-2.03zm-2.07 2.031-.591-.54a.6.6 0 0 1-.207.15l.33.73.33.728c.276-.125.524-.305.728-.528zm-.468.34-.33-.73a.6.6 0 0 1-.25.058l.017.8.017.8c.303-.007.601-.075.877-.2zm-.563.128-.017-.8a.6.6 0 0 1-.253-.046l-.298.742-.3.742c.282.113.583.168.885.161zm-.568-.104.298-.742a.6.6 0 0 1-.213-.142l-.567.565-.567.565c.214.214.469.383.75.496zm-.482-.319.567-.565a.6.6 0 0 1-.14-.213l-.743.296-.744.295c.112.282.28.537.493.752zm-.316-.482.743-.296a.6.6 0 0 1-.044-.25l-.8-.022-.8-.022a2.2 2.2 0 0 0 .157.885zm-.101-.568.8.022a.6.6 0 0 1 .058-.248l-.726-.335-.726-.336a2.2 2.2 0 0 0-.206.875zm.132-.561.726.335a.6.6 0 0 1 .151-.205l-.535-.595-.535-.595a2.2 2.2 0 0 0-.534.724zm.342-.465.566.566 2.07-2.066-.565-.567-.565-.566-2.07 2.067zm2.071-2.067.564-.567-2.071-2.055-.564.568-.563.568 2.071 2.054zm-2.07-2.054h-.8v.012h1.6v-.012zm17.957 20.213.563-.569a.6.6 0 0 1-.137-.202l-.738.308-.738.309c.113.27.278.516.487.723zm-.312-.462.738-.309a.6.6 0 0 1-.048-.238h-1.6c0 .293.058.584.172.855zm-.11-.547h.8q0-.124.048-.239l-.738-.308-.738-.308a2.2 2.2 0 0 0-.172.855zm.11-.547.738.308a.6.6 0 0 1 .136-.202l-.562-.569-.563-.568a2.2 2.2 0 0 0-.487.723zm.312-.463.566.566a.6.6 0 0 1 .207-.139l-.306-.739-.307-.739a2.2 2.2 0 0 0-.726.486zm.467-.312.306.74a.6.6 0 0 1 .244-.05v-1.6a2.2 2.2 0 0 0-.857.171zm.55-.11v.8a.6.6 0 0 1 .245.05l.306-.74.306-.739a2.2 2.2 0 0 0-.857-.17zm.551.11-.306.74a.6.6 0 0 1 .207.138l.566-.566.566-.565a2.2 2.2 0 0 0-.727-.486zm.467.312-.567.565 2.06 2.067.566-.565.567-.565-2.06-2.066zm2.06 2.067.564.566 2.071-2.066-.565-.567-.565-.566-2.071 2.067zm2.07-2.067.492.631a.64.64 0 0 1 .432-.133l.05-.799.05-.798a2.24 2.24 0 0 0-1.516.468zm.974-.3-.05.798c.156.01.303.076.413.186l.566-.565.567-.564c-.386-.388-.9-.62-1.446-.654zm.93.42-.567.564c.11.11.174.256.183.41l.799-.045.799-.046a2.23 2.23 0 0 0-.648-1.448zm.415.929-.799.045a.63.63 0 0 1-.136.428l.627.497.627.497c.34-.428.51-.967.48-1.513zm-.308.97-.566-.564-2.06 2.066.567.565.567.565 2.06-2.067zm-2.059 2.067-.566.565 2.059 2.066.566-.564.567-.565-2.059-2.067zm2.06 2.067-.512.615a.6.6 0 0 1 .163.205l.716-.356.716-.357a2.2 2.2 0 0 0-.572-.723zm.367.464-.716.356q.059.12.065.253l.8-.037.799-.036a2.2 2.2 0 0 0-.232-.893zm.148.572-.799.037a.6.6 0 0 1-.042.257l.746.29.745.29c.113-.29.164-.6.15-.91zm-.095.584-.746-.29a.6.6 0 0 1-.143.219l.565.566.565.566c.22-.219.392-.482.505-.772zm-.324.495-.565-.566a.6.6 0 0 1-.22.143l.289.746.288.746c.29-.112.553-.283.773-.503zm-.496.323-.289-.746a.6.6 0 0 1-.26.042l-.036.8-.037.799c.31.014.62-.037.91-.149zm-.585.096.036-.8a.6.6 0 0 1-.255-.065l-.355.716-.355.717c.278.138.582.217.892.23zm-.574-.149.355-.716a.6.6 0 0 1-.206-.163l-.614.513-.614.512c.199.239.446.433.724.571zm-.465-.366.565-.567-2.07-2.066-.566.566-.565.566 2.071 2.067zm-2.07-2.067-.568-.565-2.059 2.067.567.565.567.564 2.059-2.067zm-2.06 2.067-.566-.566a.6.6 0 0 1-.207.139l.306.739.307.739c.271-.113.518-.278.726-.486zm-.467.312-.306-.74a.6.6 0 0 1-.245.05v1.6c.294 0 .586-.059.858-.171zm-.55.11v-.8a.6.6 0 0 1-.245-.05l-.306.74-.307.739c.272.112.563.17.857.17zm-.551-.11.306-.74a.6.6 0 0 1-.207-.138l-.566.566-.566.565c.208.208.454.373.726.486zm-.467-.312.563-.569a.6.6 0 0 1-.137-.202l-.738.308-.738.308c.113.271.278.517.487.723zm-.312-.463.738-.308a.6.6 0 0 1-.048-.239h-1.6c0 .294.059.584.172.855zm-.11-.547h.8q0-.124.048-.238l-.738-.309-.738-.308a2.2 2.2 0 0 0-.172.855zm.11-.547.738.309a.6.6 0 0 1 .136-.203l-.562-.568-.563-.569a2.2 2.2 0 0 0-.487.723zm.312-.462.565.566 2.071-2.067-.565-.566-.565-.566-2.071 2.066zm2.07-2.067.566-.566-2.071-2.067-.565.566-.565.567 2.07 2.066zm-2.07-2.067v.8h.012v-1.6h-.012zm-12.163 6.87.563-.569a3.26 3.26 0 0 0-1.667-.882l-.153.785-.154.785c.321.063.616.22.848.449zm-1.257-.666.153-.785a3.26 3.26 0 0 0-1.876.189l.307.739.307.739c.302-.126.634-.16.955-.097zm-1.416.143-.307-.739c-.593.246-1.1.663-1.456 1.197l.665.444.665.444c.181-.27.439-.482.74-.607zm-1.098.902-.665-.445a3.25 3.25 0 0 0-.547 1.804h1.6c0-.326.096-.644.277-.915zm-.412 1.359h-.8c0 .642.19 1.269.547 1.803l.665-.445.665-.444a1.65 1.65 0 0 1-.277-.914zm.412 1.358-.665.445c.357.534.863.95 1.456 1.196l.307-.739.307-.738a1.65 1.65 0 0 1-.74-.608zm1.098.903-.307.738a3.26 3.26 0 0 0 1.876.19l-.153-.786-.154-.785c-.32.063-.653.03-.955-.096zm1.416.142.153.785c.63-.123 1.21-.43 1.667-.882l-.563-.568-.563-.569c-.232.23-.527.386-.848.449zm1.257-.665.563.568c.305-.302.546-.66.712-1.057l-.739-.308-.738-.308a1.7 1.7 0 0 1-.361.537zm.536-.797.739.308c.165-.396.25-.82.25-1.25h-1.6c0 .218-.043.433-.127.634zm.189-.941h.8c0-.43-.085-.854-.25-1.25l-.739.308-.738.308c.084.201.127.416.127.634zm-.189-.942.739-.308a3.3 3.3 0 0 0-.712-1.057l-.563.568-.563.569c.154.153.277.336.361.536zM52.718 24.55l.563-.568a3.26 3.26 0 0 0-1.666-.882l-.153.785-.154.785c.32.063.616.219.847.448zm-1.256-.665.153-.785a3.26 3.26 0 0 0-1.876.189l.307.738.307.74a1.66 1.66 0 0 1 .955-.097zm-1.416.142-.307-.738c-.593.246-1.1.662-1.456 1.196l.665.445.665.444c.18-.27.438-.482.74-.608zm-1.098.903-.666-.445a3.25 3.25 0 0 0-.547 1.803h1.6c0-.325.097-.643.278-.914zm-.413 1.358h-.8c0 .642.19 1.27.547 1.803l.666-.444.665-.444a1.65 1.65 0 0 1-.278-.915zm.413 1.359-.666.445c.357.533.864.95 1.457 1.196l.307-.739.307-.739a1.65 1.65 0 0 1-.74-.607zm1.098.902-.307.739a3.26 3.26 0 0 0 1.876.189l-.153-.785-.154-.785c-.32.062-.653.029-.955-.097zm1.416.143.153.785c.63-.123 1.21-.43 1.666-.882l-.563-.569-.563-.568c-.231.23-.526.386-.847.449zm1.256-.666.563.569c.305-.302.547-.661.712-1.057l-.738-.308-.738-.308c-.084.2-.207.383-.362.536zm.537-.796.738.308c.166-.396.25-.82.25-1.25h-1.6c0 .218-.042.433-.126.634zm.189-.942h.8c0-.429-.085-.853-.25-1.25l-.739.309-.738.308c.084.2.127.416.127.633zm-.189-.941.738-.308a3.3 3.3 0 0 0-.712-1.057l-.563.568-.563.569c.155.153.278.335.362.536zm-2.273-4.38.006.8a4.54 4.54 0 0 1 2.524.746l.44-.668.44-.669a6.14 6.14 0 0 0-3.415-1.01zm2.97.878-.44.668a4.5 4.5 0 0 1 1.68 2.02l.738-.31.737-.31a6.1 6.1 0 0 0-2.275-2.737zm1.978 2.378-.737.31c.347.825.44 1.734.27 2.611l.785.153.785.153a6.1 6.1 0 0 0-.366-3.537zm.318 3.074-.785-.153a4.5 4.5 0 0 1-1.232 2.32l.567.565.567.564a6.1 6.1 0 0 0 1.668-3.143zm-1.45 2.732-.567-.565a4.53 4.53 0 0 1-2.318 1.245l.158.785.158.784a6.13 6.13 0 0 0 3.136-1.685zm-2.727 1.465-.158-.785c-.88.177-1.791.09-2.62-.252l-.305.74-.304.74a6.14 6.14 0 0 0 3.545.34zm-3.083-.297.304-.74a4.53 4.53 0 0 1-2.036-1.663l-.665.446-.664.445a6.13 6.13 0 0 0 2.757 2.252zm-2.397-1.957.665-.446a4.5 4.5 0 0 1-.765-2.512h-1.6c0 1.212.36 2.396 1.036 3.403zm-.9-2.958.8.002a4.52 4.52 0 0 1 1.329-3.191l-.565-.566-.565-.567a6.12 6.12 0 0 0-1.799 4.32zm1.564-3.755.565.566c.849-.847 2-1.324 3.2-1.327l-.002-.8-.001-.8a6.15 6.15 0 0 0-4.327 1.794zm3.763-1.56v-.8h-.035v1.6h.035zm-3.531 20.476.552.578 2.155-2.054-.552-.58-.552-.578-2.155 2.055zm2.155-2.055h-.8v11.36h1.6v-11.36zm0 11.36-.8-.023a3.46 3.46 0 0 1-.844 2.163l.604.525.604.524a5.06 5.06 0 0 0 1.235-3.164zm-1.04 2.665-.604-.524a3.48 3.48 0 0 1-2.026 1.146l.138.788.138.788a5.08 5.08 0 0 0 2.958-1.674zm-2.492 1.41-.105-.794-22.65 2.987.105.793.104.793 22.65-2.986zm-22.65 2.986-.133-.789a8 8 0 0 0-4.709 2.644l.605.524.604.524a6.4 6.4 0 0 1 3.766-2.114zm-4.237 2.379-.605-.524a7.96 7.96 0 0 0-1.944 5.032l.8.018.8.019a6.36 6.36 0 0 1 1.553-4.021zm-1.75 4.526h-.8v4.85h1.6v-4.85zm0 4.85-.214-.77a6.13 6.13 0 0 0-3.471 2.534l.668.44.669.44a4.53 4.53 0 0 1 2.564-1.873zm-3.017 2.204-.668-.44a6.1 6.1 0 0 0-.948 4.188l.793-.109.792-.109c-.149-1.08.1-2.178.7-3.09zm-.823 3.64-.793.108a6.1 6.1 0 0 0 2.044 3.778l.525-.603.525-.604a4.5 4.5 0 0 1-1.509-2.789zm1.776 3.283-.525.603A6.13 6.13 0 0 0 18.91 80.8v-1.6a4.53 4.53 0 0 1-2.976-1.113zM18.91 80v.8c1.48 0 2.911-.535 4.027-1.506l-.525-.603-.525-.604A4.53 4.53 0 0 1 18.91 79.2zm3.502-1.31.525.604a6.1 6.1 0 0 0 2.044-3.778l-.793-.109-.792-.109a4.5 4.5 0 0 1-1.51 2.79zm1.776-3.283.793.11a6.1 6.1 0 0 0-.948-4.189l-.668.44-.669.44c.6.912.849 2.01.7 3.09zm-.823-3.64.668-.439a6.13 6.13 0 0 0-3.47-2.534l-.216.77-.215.771a4.53 4.53 0 0 1 2.564 1.872zm-3.018-2.202h.8v-4.85h-1.6v4.85zm0-4.85.8.023a3.45 3.45 0 0 1 .86-2.177l-.6-.53-.6-.528a5.05 5.05 0 0 0-1.26 3.187zm1.06-2.683.6.529a3.46 3.46 0 0 1 2.057-1.13l-.125-.79-.126-.79a5.06 5.06 0 0 0-3.006 1.652zm2.532-1.391.104.793 22.65-2.987-.104-.793-.105-.793-22.65 2.986zm22.65-2.987.133.789a8 8 0 0 0 4.709-2.644l-.605-.524-.604-.524a6.4 6.4 0 0 1-3.766 2.114zm4.237-2.379.605.524a7.96 7.96 0 0 0 1.944-5.032l-.8-.018-.8-.018a6.36 6.36 0 0 1-1.553 4.02zm1.749-4.526h.8V39.59h-1.6v11.158zm0-11.158-.59.541 1.868 2.031.59-.541.588-.542-1.867-2.03zm1.867 2.03-.534.596c.422.379.972.582 1.54.569l-.02-.8-.018-.8a.63.63 0 0 1-.433-.16zm.987.365.018.8a2.23 2.23 0 0 0 1.511-.64l-.561-.57-.562-.57a.63.63 0 0 1-.425.18zm.968-.41.561.57a2.22 2.22 0 0 0 .66-1.503l-.799-.028-.8-.028a.62.62 0 0 1-.184.42zm.422-.961.8.028a2.22 2.22 0 0 0-.553-1.545l-.6.529-.6.528a.62.62 0 0 1 .154.432zm-.354-.988.578-.554-4.322-4.504-.577.554-.578.554 4.322 4.504zm-4.321-4.504.608-.52a2.2 2.2 0 0 0-.76-.575l-.335.727-.334.727a.6.6 0 0 1 .213.16zm-.487-.368.334-.727a2.2 2.2 0 0 0-.93-.204v1.6c.09 0 .18.02.261.058zm-.597-.13v-.8c-.321 0-.639.069-.93.203l.334.727.334.727a.6.6 0 0 1 .262-.058zm-.596.13-.335-.727c-.292.135-.551.33-.76.575l.608.52.608.52a.6.6 0 0 1 .213-.161zm-.487.368-.553-.579-4.513 4.313.553.578.552.579L50.53 35.7zm-4.513 4.313-.502-.624c-.242.194-.44.437-.583.713l.71.368.71.368a.6.6 0 0 1 .166-.202zm-.375.457-.71-.368a2.2 2.2 0 0 0-.246.887l.798.05.799.05a.6.6 0 0 1 .07-.25zm-.158.57-.798-.05c-.02.309.026.62.133.91l.75-.276.751-.277a.6.6 0 0 1-.038-.258zm.086.584-.751.277c.107.29.274.556.49.78l.575-.557.575-.556a.6.6 0 0 1-.139-.22zm.314.5-.575.556c.216.224.476.4.763.517l.302-.741.302-.74a.6.6 0 0 1-.217-.148zm.49.332-.302.74c.287.118.596.174.906.166l-.021-.8-.022-.8a.6.6 0 0 1-.259-.047zm.583.106.021.8a2.2 2.2 0 0 0 .896-.214l-.341-.723-.342-.724a.6.6 0 0 1-.256.061zm.575-.137.342.723c.28-.133.53-.322.734-.556l-.604-.525-.604-.524a.6.6 0 0 1-.21.158zm.472-.358.64.48.035-.047-.64-.48-.639-.481-.036.048zm8.847 31.455-.563.57c.195.192.34.43.42.69l.764-.235.765-.235a3.26 3.26 0 0 0-.824-1.358zm.621 1.025-.764.236c.08.261.095.538.042.806l.785.154.785.154a3.26 3.26 0 0 0-.083-1.585zm.063 1.196-.785-.154c-.052.269-.17.52-.344.732l.619.507.619.506c.34-.416.573-.91.676-1.437zm-.51 1.085-.62-.507a1.7 1.7 0 0 1-.65.483l.307.739.307.739a3.27 3.27 0 0 0 1.275-.948zm-.963.715-.306-.74c-.254.106-.53.147-.803.12l-.078.797-.078.796a3.3 3.3 0 0 0 1.572-.234zm-1.187.177.078-.796a1.7 1.7 0 0 1-.764-.273l-.444.666-.444.665a3.3 3.3 0 0 0 1.496.534zm-1.13-.403.444-.666a1.66 1.66 0 0 1-.544-.6l-.706.378-.705.377c.253.474.62.878 1.067 1.176zm-.806-.888.706-.377a1.66 1.66 0 0 1-.196-.784l-.8-.001-.8-.002c-.001.538.131 1.067.385 1.541zm-.29-1.162h.8c0-.326.098-.646.28-.919l-.664-.445-.665-.445a3.26 3.26 0 0 0-.551 1.807zm.416-1.364.664.445c.183-.272.442-.485.746-.61l-.307-.74-.307-.739a3.27 3.27 0 0 0-1.461 1.199zm1.103-.905.307.74c.303-.127.638-.16.96-.097l.154-.786.153-.785a3.27 3.27 0 0 0-1.88.19zm1.42-.143-.152.785c.322.064.62.22.852.451l.563-.569.562-.568a3.27 3.27 0 0 0-1.67-.884zm-.473-2.916.007.8a4.54 4.54 0 0 1 2.526.74l.438-.669.439-.669a6.14 6.14 0 0 0-3.417-1.002zm2.971.871-.438.67a4.5 4.5 0 0 1 1.685 2.016l.737-.312.736-.312a6.1 6.1 0 0 0-2.281-2.73zm1.984 2.374-.737.312c.35.824.445 1.732.276 2.61l.786.152.785.151c.23-1.19.1-2.42-.374-3.537zm.325 3.074-.786-.151a4.5 4.5 0 0 1-1.226 2.322l.568.563.568.563a6.1 6.1 0 0 0 1.661-3.146zm-1.444 2.734-.568-.563a4.53 4.53 0 0 1-2.315 1.25l.16.784.159.784a6.13 6.13 0 0 0 3.132-1.692zm-2.724 1.471-.16-.783a4.54 4.54 0 0 1-2.62-.246l-.303.74-.303.74a6.14 6.14 0 0 0 3.546.333zm-3.083-.289.302-.74a4.53 4.53 0 0 1-2.04-1.66l-.663.448-.664.447a6.13 6.13 0 0 0 2.762 2.246zm-2.401-1.952.663-.447a4.5 4.5 0 0 1-.77-2.51l-.8.002-.8.002a6.1 6.1 0 0 0 1.043 3.4zm-.907-2.955h.8a4.5 4.5 0 0 1 1.325-3.193l-.565-.567-.565-.566a6.1 6.1 0 0 0-1.795 4.326zm1.56-3.76.565.567c.849-.847 2-1.324 3.202-1.324v-1.6a6.13 6.13 0 0 0-4.332 1.791zm3.767-1.557.194-.776-.048-.012-.194.777-.194.776.048.012zM6.113 17.478v.8h7.901v-1.6H6.113zm7.901 0-.037.799a5.6 5.6 0 0 0 3.988-1.415l-.532-.596-.533-.597a4 4 0 0 1-2.848 1.01zm3.419-1.212.532.596a5.58 5.58 0 0 0 1.852-3.801l-.799-.051-.798-.051a3.98 3.98 0 0 1-1.32 2.71zm1.585-3.256h.8V5.675h-1.6v7.335zm0-7.335-.54-.59L5.573 16.886l.54.59.54.591L19.558 6.265zm2.874-1.804h-.8v9.139h1.6V3.87zm0 9.139-.8-.033a6.83 6.83 0 0 1-2.174 4.725l.544.586.545.586a8.43 8.43 0 0 0 2.684-5.832zm-2.43 5.278-.544-.586a6.86 6.86 0 0 1-4.88 1.831l-.024.8-.024.8a8.46 8.46 0 0 0 6.017-2.259zm-5.448 2.045v-.8H3.874v1.6h10.14zm-10.14 0h-.8v72.312h1.6V20.333zm0 72.312-.798.052a5.58 5.58 0 0 0 1.851 3.8l.533-.596.533-.597a3.98 3.98 0 0 1-1.32-2.71zm1.586 3.256-.533.597a5.6 5.6 0 0 0 3.989 1.414l-.038-.799-.037-.799a4 4 0 0 1-2.848-1.01zm3.418 1.212v.8h61.87v-1.6H8.878zm61.87 0-.04.8a5.6 5.6 0 0 0 3.998-1.41l-.532-.597-.532-.598a4 4 0 0 1-2.855 1.006zm3.426-1.207.532.597a5.58 5.58 0 0 0 1.856-3.807l-.798-.05-.799-.052a3.98 3.98 0 0 1-1.323 2.714zm1.59-3.26h.8V8.325h-1.6v84.32zm0-84.32.798-.052a5.58 5.58 0 0 0-1.861-3.798l-.531.598-.532.598a3.98 3.98 0 0 1 1.328 2.708zM74.17 5.075l.531-.598a5.6 5.6 0 0 0-3.993-1.404l.04.799.04.799a4 4 0 0 1 2.85 1.002zm-3.422-1.203v-.8H21.89v1.6h48.857zM13.224 99.969v.799c2.134 0 3.415.063 4.694-.001l-.04-.798-.04-.8c-1.23.062-2.377 0-4.614 0zm57.524 0-.025.799a8.37 8.37 0 0 0 6.017-2.258l-.544-.586-.545-.586a6.77 6.77 0 0 1-4.879 1.83zm7.865-83.089.798-.05a12 12 0 0 1-.023-1.321c.013-.419.037-.935.037-1.885h-1.6c0 .92-.023 1.406-.036 1.836a14 14 0 0 0 .026 1.472zm.012-3.255h.8V12.3h-1.6v.111h1.6V12.3h-1.6v1.323zm0-1.213h-.8v80.233h1.6V12.412zM70.748 99.97v-.8H13.224v1.599h57.524zm7.877-90.412h.8V8.363h-1.6v1.194zm0-1.194.8-.029a8.43 8.43 0 0 0-2.67-5.858l-.547.585-.546.585a6.83 6.83 0 0 1 2.163 4.745zM76.208 3.06l.546-.585a8.46 8.46 0 0 0-6.03-2.272l.024.8.024.8a6.86 6.86 0 0 1 4.89 1.842zm-5.46-2.057v-.8H20.467v1.6h50.28zm-50.281 0 .006-.8a2.2 2.2 0 0 0-.919.192l.328.73.327.73a.6.6 0 0 1 .252-.052zm-.585.122-.328-.73a2.2 2.2 0 0 0-.754.558l.601.527.602.527a.6.6 0 0 1 .206-.152zm-.48.355-.54-.59L1.038 17.136l.539.592.539.59L19.94 2.074zM1.575 17.73l-.476-.643c-.29.215-.524.497-.68.822l.72.347.721.347q.068-.138.19-.23zm-.436.526-.72-.347a2.2 2.2 0 0 0-.218 1.045l.799-.03.8-.03a.6.6 0 0 1 .06-.291zm-.139.668h-.8v73.722h1.6V18.923zm0 73.722-.8.032a8.43 8.43 0 0 0 2.684 5.833l.545-.586.545-.586A6.83 6.83 0 0 1 1.8 92.613zm2.43 5.279-.546.586a8.46 8.46 0 0 0 6.018 2.258l-.025-.8-.024-.8a6.86 6.86 0 0 1-4.88-1.83zm5.447 2.044v.8h1.485v-1.6H8.878zm1.485 0v.8h2.861v-1.6h-2.861zm2.861 0-.006.8c2.163.018 2.643.062 4.685 0l-.025-.8-.024-.8c-2 .061-2.417.018-4.624 0zM78.613 16.88l.8-.032c-.041-1.002-.037-1.208-.025-1.444.013-.28.037-.606.037-1.78h-1.6c0 1.139-.023 1.436-.035 1.703-.015.312-.017.577.024 1.586zm.012-3.255h.8V9.557h-1.6v4.067zm-2.43 84.299.594.536.001-.001.003-.003.01-.012.168-.191c.11-.127.26-.305.427-.513.323-.403.737-.956 1.004-1.461l-.708-.373-.707-.374c-.192.363-.526.819-.838 1.208a17 17 0 0 1-.507.602l-.03.035-.008.008-.001.002zm1.5-2.019.707.374c.36-.682.61-1.582.769-2.262a19 19 0 0 0 .24-1.224l.004-.02v-.007l.001-.001v-.001l-.791-.119-.791-.118v.003l-.003.015-.01.063q-.014.084-.042.239c-.037.204-.093.489-.167.808-.153.657-.367 1.388-.625 1.877z" mask="url(#content-strategy-mask)"/></svg>
