<svg xmlns="http://www.w3.org/2000/svg" viewBox="0 0 20 20" aria-hidden="true"><path fill="#e04e2b" d="M6.922.012a3 3 0 0 0-.086.382l-.03.296a2.7 2.7 0 0 0 .096.86H1.537v16.913h16.914v-5.506c.248.07.505.11.768.108.27 0 .527-.043.77-.113v6.28a.77.77 0 0 1-.77.768H.77A.77.77 0 0 1 0 19.231V.781C0 .355.344.01.769.01zM19.203 0a.96.96 0 0 1 .56.236.73.73 0 0 1 .236.56v9.385a.81.81 0 0 1-.789.834c-.427.001-.827-.37-.84-.796l.07-7.502L7.795 13.363a.816.816 0 0 1-1.153-.005.816.816 0 0 1-.005-1.153L17.282 1.56l-7.632.07c-.426-.013-.816-.415-.796-.84A.81.81 0 0 1 9.688 0z"/></svg>
