<?xml version="1.0" encoding="utf-8"?>
<!-- Generator: Adobe Illustrator 16.0.0, SVG Export Plug-In . SVG Version: 6.00 Build 0)  -->
<!DOCTYPE svg PUBLIC "-//W3C//DTD SVG 1.1//EN" "http://www.w3.org/Graphics/SVG/1.1/DTD/svg11.dtd">
<svg version="1.1" id="Layer_1" xmlns="http://www.w3.org/2000/svg" xmlns:xlink="http://www.w3.org/1999/xlink" x="0px" y="0px"
	 width="176.092px" height="175px" viewBox="0 0 176.092 175" enable-background="new 0 0 176.092 175" xml:space="preserve">
<path fill="#FFFFFF" d="M88.047,0C39.861,0,0.803,39.173,0.803,87.5c0,48.326,39.058,87.5,87.244,87.5s87.248-39.174,87.248-87.5
	C175.295,39.173,136.234,0,88.047,0z M112.053,126.194l-2.561-45.722l-19.606,30.523h-0.28L70.339,81.032l-2.531,45.163H47.009
	l4.476-79.033h20.798h0.178l17.604,29.716l17.52-29.716h21.141l4.473,79.033H112.053z M17.89,165.315
	c-0.05,4.951-4.097,8.927-9.033,8.876c-4.943-0.05-8.906-4.106-8.856-9.061c0.052-4.954,4.099-8.935,9.038-8.881
	C13.977,156.301,17.94,160.361,17.89,165.315z M158.202,9.693c0.051-4.957,4.094-8.932,9.04-8.88
	c4.937,0.049,8.903,4.107,8.851,9.064c-0.049,4.952-4.096,8.923-9.033,8.873C162.114,18.699,158.153,14.642,158.202,9.693z"/>
</svg>
