<svg xmlns="http://www.w3.org/2000/svg" xml:space="preserve" width="176.092" height="175"><path fill="#FFF" d="M88.047 0C39.861 0 .803 39.173.803 87.5S39.861 175 88.047 175s87.248-39.174 87.248-87.5S136.234 0 88.047 0m24.006 126.194-2.561-45.722-19.606 30.523h-.28L70.339 81.032l-2.531 45.163H47.009l4.476-79.033h20.976l17.604 29.716 17.52-29.716h21.141l4.473 79.033zM17.89 165.315c-.05 4.951-4.097 8.927-9.033 8.876-4.943-.05-8.906-4.106-8.856-9.061.052-4.954 4.099-8.935 9.038-8.881 4.938.052 8.901 4.112 8.851 9.066M158.202 9.693c.051-4.957 4.094-8.932 9.04-8.88 4.937.049 8.903 4.107 8.851 9.064-.049 4.952-4.096 8.923-9.033 8.873-4.946-.051-8.907-4.108-8.858-9.057"/></svg>