<svg xmlns="http://www.w3.org/2000/svg" width="90" height="101" viewBox="0 0 90 101" aria-hidden="true"><mask id="ia-mask" width="90" height="101" x="0" y="0" fill="#000" maskUnits="userSpaceOnUse"><path fill="#fff" d="M0 0h90v101H0z"/><path d="M85.23 66.357a6.5 6.5 0 0 0-2.07-.77V35.401a6.509 6.509 0 1 0-6.133-10.623L50.877 9.68a6.507 6.507 0 1 0-12.264 0l-26.15 15.098a6.505 6.505 0 1 0-8.203 9.859 6.5 6.5 0 0 0 2.07.77V65.59a6.51 6.51 0 1 0 6.133 10.625l26.15 15.098a6.507 6.507 0 1 0 12.263 0l26.151-15.098a6.51 6.51 0 0 0 6.633 2.067 6.508 6.508 0 0 0 1.57-11.921zm-8.204 1.41-7.933-4.581V37.807l7.933-4.58a6.45 6.45 0 0 0 3.766 2.172v30.197a6.465 6.465 0 0 0-3.766 2.17m-64.567 0a6.45 6.45 0 0 0-3.766-2.172V35.398a6.465 6.465 0 0 0 3.77-2.17l7.935 4.58v25.38zm32.286-42.653 20.798 12.008L44.745 49.13 23.948 37.12zm-21.98 14.054L43.56 51.18v24.014L22.765 63.186zM45.929 75.19V51.18l20.797-12.013v24.018zm33.977-49.773a4.14 4.14 0 1 1-1.516 5.656 4.12 4.12 0 0 1 1.516-5.656m-4.059 1.414a6.5 6.5 0 0 0 0 4.347l-7.936 4.579-21.982-12.694v-9.16a6.5 6.5 0 0 0 3.766-2.176zM44.745 3.365a4.141 4.141 0 1 1 .002 8.283 4.141 4.141 0 0 1-.002-8.283m-4.95 8.36a6.5 6.5 0 0 0 3.763 2.176v9.163L21.58 35.758l-7.934-4.58a6.5 6.5 0 0 0 0-4.346zM3.515 30.073a4.141 4.141 0 1 1 8-2.143 4.141 4.141 0 0 1-8 2.143m6.07 45.503A4.14 4.14 0 1 1 11.1 69.92a4.146 4.146 0 0 1-1.516 5.656m4.058-1.414a6.5 6.5 0 0 0 0-4.347l7.94-4.579 21.978 12.69v9.164a6.5 6.5 0 0 0-3.766 2.176zM44.745 97.63a4.142 4.142 0 1 1-.002-8.284 4.142 4.142 0 0 1 .002 8.284m4.95-8.36a6.5 6.5 0 0 0-3.763-2.176v-9.167l21.976-12.69 7.936 4.583a6.5 6.5 0 0 0 0 4.346zm35.867-15.206a4.14 4.14 0 1 1-7.17-4.14 4.14 4.14 0 0 1 7.17 4.14"/></mask><path fill="#C21F0A" d="M85.23 66.357a6.5 6.5 0 0 0-2.07-.77V35.401a6.509 6.509 0 1 0-6.133-10.623L50.877 9.68a6.507 6.507 0 1 0-12.264 0l-26.15 15.098a6.505 6.505 0 1 0-8.203 9.859 6.5 6.5 0 0 0 2.07.77V65.59a6.51 6.51 0 1 0 6.133 10.625l26.15 15.098a6.507 6.507 0 1 0 12.263 0l26.151-15.098a6.51 6.51 0 0 0 6.633 2.067 6.508 6.508 0 0 0 1.57-11.921zm-8.204 1.41-7.933-4.581V37.807l7.933-4.58a6.45 6.45 0 0 0 3.766 2.172v30.197a6.465 6.465 0 0 0-3.766 2.17m-64.567 0a6.45 6.45 0 0 0-3.766-2.172V35.398a6.465 6.465 0 0 0 3.77-2.17l7.935 4.58v25.38zm32.286-42.653 20.798 12.008L44.745 49.13 23.948 37.12zm-21.98 14.054L43.56 51.18v24.014L22.765 63.186zM45.929 75.19V51.18l20.797-12.013v24.018zm33.977-49.773a4.14 4.14 0 1 1-1.516 5.656 4.12 4.12 0 0 1 1.516-5.656m-4.059 1.414a6.5 6.5 0 0 0 0 4.347l-7.936 4.579-21.982-12.694v-9.16a6.5 6.5 0 0 0 3.766-2.176zM44.745 3.365a4.141 4.141 0 1 1 .002 8.283 4.141 4.141 0 0 1-.002-8.283m-4.95 8.36a6.5 6.5 0 0 0 3.763 2.176v9.163L21.58 35.758l-7.934-4.58a6.5 6.5 0 0 0 0-4.346zM3.515 30.073a4.141 4.141 0 1 1 8-2.143 4.141 4.141 0 0 1-8 2.143m6.07 45.503A4.14 4.14 0 1 1 11.1 69.92a4.146 4.146 0 0 1-1.516 5.656m4.058-1.414a6.5 6.5 0 0 0 0-4.347l7.94-4.579 21.978 12.69v9.164a6.5 6.5 0 0 0-3.766 2.176zM44.745 97.63a4.142 4.142 0 1 1-.002-8.284 4.142 4.142 0 0 1 .002 8.284m4.95-8.36a6.5 6.5 0 0 0-3.763-2.176v-9.167l21.976-12.69 7.936 4.583a6.5 6.5 0 0 0 0 4.346zm35.867-15.206a4.14 4.14 0 1 1-7.17-4.14 4.14 4.14 0 0 1 7.17 4.14"/><path stroke="#C21F0A" stroke-width="2" d="M85.23 66.357a6.5 6.5 0 0 0-2.07-.77V35.401a6.509 6.509 0 1 0-6.133-10.623L50.877 9.68a6.507 6.507 0 1 0-12.264 0l-26.15 15.098a6.505 6.505 0 1 0-8.203 9.859 6.5 6.5 0 0 0 2.07.77V65.59a6.51 6.51 0 1 0 6.133 10.625l26.15 15.098a6.507 6.507 0 1 0 12.263 0l26.151-15.098a6.51 6.51 0 0 0 6.633 2.067 6.508 6.508 0 0 0 1.57-11.921zm-8.204 1.41-7.933-4.581V37.807l7.933-4.58a6.45 6.45 0 0 0 3.766 2.172v30.197a6.465 6.465 0 0 0-3.766 2.17Zm-64.567 0a6.45 6.45 0 0 0-3.766-2.172V35.398a6.465 6.465 0 0 0 3.77-2.17l7.935 4.58v25.38zm32.286-42.653 20.798 12.008L44.745 49.13 23.948 37.12zm-21.98 14.054L43.56 51.18v24.014L22.765 63.186zM45.929 75.19V51.18l20.797-12.013v24.018zm33.977-49.773a4.14 4.14 0 1 1-1.516 5.656 4.12 4.12 0 0 1 1.516-5.656Zm-4.059 1.414a6.5 6.5 0 0 0 0 4.347l-7.936 4.579-21.982-12.694v-9.16a6.5 6.5 0 0 0 3.766-2.176zM44.745 3.365a4.141 4.141 0 1 1 .002 8.283 4.141 4.141 0 0 1-.002-8.283Zm-4.95 8.36a6.5 6.5 0 0 0 3.763 2.176v9.163L21.58 35.758l-7.934-4.58a6.5 6.5 0 0 0 0-4.346zM3.515 30.073a4.141 4.141 0 1 1 8-2.143 4.141 4.141 0 0 1-8 2.143Zm6.07 45.503A4.14 4.14 0 1 1 11.1 69.92a4.146 4.146 0 0 1-1.516 5.656Zm4.058-1.414a6.5 6.5 0 0 0 0-4.347l7.94-4.579 21.978 12.69v9.164a6.5 6.5 0 0 0-3.766 2.176zM44.745 97.63a4.142 4.142 0 1 1-.002-8.284 4.142 4.142 0 0 1 .002 8.284Zm4.95-8.36a6.5 6.5 0 0 0-3.763-2.176v-9.167l21.976-12.69 7.936 4.583a6.5 6.5 0 0 0 0 4.346zm35.867-15.206a4.14 4.14 0 1 1-7.17-4.14 4.14 4.14 0 0 1 7.17 4.14Z" mask="url(#ia-mask)"/></svg>
