<svg xmlns="http://www.w3.org/2000/svg" width="40" height="41" fill="none"><g clip-path="url(#a)"><path fill="#fff" d="M19.979 0q8.274 0 14.127 5.863c3.905 3.91 5.862 8.623 5.862 14.147 0 5.523-1.957 10.233-5.863 14.143-3.902 3.913-8.609 5.863-14.126 5.863-5.514 0-10.222-1.95-14.125-5.863-3.901-3.909-5.856-8.62-5.856-14.143S1.953 9.772 5.854 5.863Q11.708 0 19.98 0m.002 10.001c-2.716.005-3.056.017-4.123.07-1.064.05-1.79.219-2.425.468-.658.256-1.214.6-1.769 1.157a4.9 4.9 0 0 0-1.15 1.773c-.246.636-.413 1.363-.46 2.428S9.996 17.304 10 20.02c.005 2.715.018 3.055.07 4.122.05 1.063.22 1.79.469 2.425a4.9 4.9 0 0 0 1.156 1.77 4.9 4.9 0 0 0 1.774 1.15c.636.245 1.363.413 2.428.46 1.064.046 1.407.057 4.122.052s3.056-.018 4.123-.068c1.066-.05 1.789-.22 2.424-.47a4.9 4.9 0 0 0 1.77-1.156 4.9 4.9 0 0 0 1.15-1.774c.246-.636.413-1.363.46-2.426.046-1.068.057-1.41.052-4.125s-.018-3.055-.068-4.122-.22-1.79-.47-2.425a4.9 4.9 0 0 0-1.156-1.77 4.9 4.9 0 0 0-1.774-1.15c-.636-.245-1.363-.413-2.427-.46-1.065-.045-1.408-.057-4.123-.052m.003 1.804c2.67-.006 2.986.004 4.041.05.974.043 1.505.204 1.857.34.467.18.8.397 1.151.746.352.35.568.682.75 1.15.138.351.302.88.348 1.854.05 1.055.061 1.371.066 4.04s-.004 2.987-.05 4.04c-.043.975-.205 1.506-.34 1.859-.18.466-.397.8-.746 1.15a3.1 3.1 0 0 1-1.149.75c-.352.138-.882.302-1.855.349-1.055.05-1.371.06-4.041.065s-2.986-.005-4.04-.05l-.346-.022c-.76-.061-1.203-.2-1.512-.318-.467-.18-.8-.398-1.151-.747a3.1 3.1 0 0 1-.75-1.148c-.137-.353-.302-.881-.348-1.856-.05-1.054-.06-1.37-.066-4.04s.004-2.986.05-4.04c.042-.974.205-1.504.34-1.857.18-.468.398-.8.747-1.151a3.1 3.1 0 0 1 1.148-.75c.352-.138.882-.301 1.856-.348 1.055-.05 1.371-.06 4.04-.066m.006 3.06a5.135 5.135 0 1 0 .02 10.27 5.135 5.135 0 0 0-.02-10.27m-1.271 2.058a3.333 3.333 0 1 1 2.562 6.153 3.333 3.333 0 0 1-2.562-6.153m6.606-3.47a1.2 1.2 0 1 0 .007 2.402 1.2 1.2 0 0 0-.007-2.402"/></g><defs><clipPath id="a"><path fill="#fff" d="M0 0h39.967v40.016H0z"/></clipPath></defs></svg>