<?xml version="1.0" encoding="utf-8"?>
<!-- Generator: Adobe Illustrator 16.0.0, SVG Export Plug-In . SVG Version: 6.00 Build 0)  -->
<!DOCTYPE svg PUBLIC "-//W3C//DTD SVG 1.1//EN" "http://www.w3.org/Graphics/SVG/1.1/DTD/svg11.dtd">
<svg version="1.1" id="Layer_1" xmlns="http://www.w3.org/2000/svg" xmlns:xlink="http://www.w3.org/1999/xlink" x="0px" y="0px"
	 width="39.967px" height="40.016px" viewBox="0 0 39.967 40.016" enable-background="new 0 0 39.967 40.016" xml:space="preserve">
<path fill="#FFFFFF" d="M39.968,20.01c0,5.523-1.957,10.233-5.863,14.143c-3.903,3.913-8.609,5.863-14.127,5.863
	c-5.514,0-10.221-1.95-14.125-5.863c-3.901-3.909-5.855-8.619-5.855-14.143S1.952,9.772,5.854,5.863C9.757,1.955,14.464,0,19.978,0
	c5.518,0,10.224,1.955,14.127,5.863C38.011,9.772,39.968,14.486,39.968,20.01z M14.635,13.073c0.406-0.405,0.606-0.882,0.606-1.439
	c0-0.562-0.2-1.044-0.606-1.443c-0.401-0.4-0.912-0.601-1.53-0.601c-0.621,0-1.134,0.2-1.533,0.601
	c-0.402,0.399-0.602,0.881-0.602,1.443c0,0.558,0.182,1.034,0.553,1.439c0.371,0.408,0.867,0.604,1.49,0.604
	C13.691,13.678,14.234,13.481,14.635,13.073z M15.054,15.258h-3.995v13.03h3.995V15.258z M29.832,20.568
	c0-1.802-0.416-3.182-1.25-4.144c-0.842-0.958-1.973-1.444-3.394-1.444c-1.799,0-3.132,0.687-3.997,2.045h-0.094l-0.188-1.768
	h-3.531c0.062,1.554,0.094,2.951,0.094,4.194v8.836h4.09v-7.537c0-0.435,0.028-0.775,0.094-1.021
	c0.432-0.997,1.141-1.491,2.135-1.491c1.365,0,2.044,0.933,2.044,2.798v7.252h3.997V20.568z"/>
</svg>
