<svg xmlns="http://www.w3.org/2000/svg" xml:space="preserve" width="39.967" height="40.016"><path fill="#FFF" d="M39.967 20.01c0 5.523-1.952 10.233-5.856 14.143-3.9 3.913-8.613 5.863-14.131 5.863-5.514 0-10.223-1.95-14.125-5.863C1.952 30.243 0 25.533 0 20.01S1.952 9.772 5.855 5.863Q11.709 0 19.98 0q8.278 0 14.131 5.863 5.856 5.862 5.856 14.147m-10.229 0c0-2.729-.939-5.037-2.832-6.937-1.889-1.887-4.195-2.836-6.926-2.836-2.723 0-5.03.949-6.918 2.836-1.893 1.899-2.842 4.207-2.842 6.937 0 2.726.949 5.042 2.842 6.933 1.888 1.896 4.195 2.837 6.918 2.837 2.73 0 5.037-.941 6.926-2.837 1.892-1.891 2.832-4.208 2.832-6.933m-15.89 5.395c-1.36-1.55-2.044-3.352-2.044-5.396v-.188a27 27 0 0 0 8.365-1.12c.249.435.432.84.56 1.214l-.187.094q-4.188 1.304-6.694 5.396m-1.766-7.167h-.094c.623-2.602 2.107-4.467 4.467-5.582a38 38 0 0 1 2.877 4.564c-2.477.682-4.899 1.018-7.25 1.018m9.293 3.262q1.211 3.16 1.676 6.048a7.6 7.6 0 0 1-3.07.651q-2.787 0-4.922-1.678c1.115-2.295 3.216-3.968 6.316-5.021m-.182-4.846a37 37 0 0 0-2.979-4.65 8.2 8.2 0 0 1 1.767-.183c2.046 0 3.814.646 5.299 1.95-.864 1.175-2.23 2.142-4.087 2.883m5.205-1.766c1.111 1.431 1.703 3.074 1.765 4.935a19.6 19.6 0 0 0-3.809-.37q-.936 0-1.767.09a.6.6 0 0 1-.139-.184.4.4 0 0 1-.049-.188 8 8 0 0 1-.468-1.12c1.985-.8 3.474-1.857 4.467-3.163m-1.674 6.054q1.762-.002 3.349.465c-.438 2.231-1.581 3.998-3.442 5.302-.248-1.793-.748-3.688-1.488-5.673a13 13 0 0 1 1.581-.094"/></svg>