<svg xmlns="http://www.w3.org/2000/svg" width="40" height="40" fill="none"><g clip-path="url(#a)"><path fill="#fff" d="M20 0c5.5 0 10.2 2 14.1 5.9S40 14.5 40 20s-2 10.2-5.9 14.1c-3.9 4-8.6 5.9-14.1 5.9S9.8 38 5.9 34.1 0 25.5 0 20 2 9.8 5.9 5.9 14.5 0 20 0m10 13.086c0-3.126-2.68-2.144-4.335-.874-2.293 1.76-4.76 5.327-5.665 7.241-.85-1.795-3.07-5.043-5.233-6.891l-.432-.35C12.681 10.942 10 9.96 10 13.086c0 .626.35 5.244.556 5.994.714 2.608 3.315 3.273 5.629 2.87-4.045.704-5.074 3.035-2.852 5.365 4.22 4.427 6.066-1.11 6.54-2.529.086-.26.126-.382.127-.278 0-.104.041.018.128.278.473 1.42 2.319 6.956 6.539 2.53 2.222-2.331 1.193-4.662-2.852-5.366 2.314.403 4.915-.262 5.63-2.87.205-.75.555-5.368.555-5.994"/></g><defs><clipPath id="a"><path fill="#fff" d="M0 0h40v40H0z"/></clipPath></defs></svg>