<svg xmlns="http://www.w3.org/2000/svg" xml:space="preserve" width="39.967" height="40.016"><path fill="#FFF" d="M39.968 20.01c0 5.523-1.957 10.233-5.863 14.143-3.903 3.913-8.609 5.863-14.127 5.863-5.514 0-10.221-1.95-14.125-5.863C1.952 30.244-.002 25.534-.002 20.01S1.952 9.772 5.854 5.863Q11.708 0 19.978 0c5.518 0 10.224 1.955 14.127 5.863q5.861 5.862 5.863 14.147m-25.333-6.937q.607-.605.606-1.439.002-.844-.606-1.443-.602-.6-1.53-.601-.933 0-1.533.601a1.96 1.96 0 0 0-.602 1.443c0 .558.182 1.034.553 1.439.371.408.867.604 1.49.604.678.001 1.221-.196 1.622-.604m.419 2.185h-3.995v13.03h3.995zm14.778 5.31q0-2.702-1.25-4.144c-.842-.958-1.973-1.444-3.394-1.444-1.799 0-3.132.687-3.997 2.045h-.094l-.188-1.768h-3.531q.093 2.33.094 4.194v8.836h4.09V20.75c0-.435.028-.775.094-1.021.432-.997 1.141-1.491 2.135-1.491q2.046 0 2.044 2.798v7.252h3.997z"/></svg>