<svg xmlns="http://www.w3.org/2000/svg" width="99" height="101" viewBox="0 0 99 101" aria-hidden="true"><path fill="#C21F0A" stroke="#C21F0A" stroke-width=".3" d="M63.281 89.883c.87 0 1.574.704 1.574 1.574v7.12c0 .87-.704 1.573-1.574 1.573h-7.119c-.87 0-1.574-.704-1.574-1.574v-7.119c0-.87.704-1.574 1.574-1.574zm-43.6-78.871a1.79 1.79 0 0 1 2.364.416l.105.15c.451.714.336 1.654-.273 2.242l-.139.121C11.208 22.168 4.434 34.981 4.434 49.37c0 24.801 20.134 44.937 44.935 44.937.987 0 1.792.803 1.792 1.79 0 .988-.805 1.793-1.792 1.793-26.78 0-48.52-21.744-48.52-48.52 0-15.53 7.315-29.368 18.682-38.252zM49.37.85c26.776 0 48.515 21.74 48.515 48.52 0 19.638-11.695 36.567-28.493 44.2h-.001a1.79 1.79 0 0 1-2.284-.728l-.084-.162a1.79 1.79 0 0 1 .887-2.372l.726-.338c15.17-7.22 25.67-22.695 25.67-40.6 0-24.801-20.136-44.936-44.937-44.936-2.469 0-4.886.197-7.244.58l-1.007.174a1.79 1.79 0 0 1-2.047-1.252l-.042-.178a1.79 1.79 0 0 1 1.436-2.09l1.086-.189a48.7 48.7 0 0 1 7.82-.63Zm.001 11.21c12.581 0 23.719 6.245 30.48 15.802l.097.155c.414.735.253 1.67-.383 2.227l-.144.113a1.79 1.79 0 0 1-2.384-.285l-.112-.144c-6.113-8.64-16.18-14.284-27.554-14.284-18.615 0-33.725 15.113-33.725 33.725S30.754 83.096 49.37 83.096c18.612 0 33.725-15.115 33.725-33.727 0-.987.8-1.792 1.792-1.792a1.79 1.79 0 0 1 1.787 1.792c0 20.59-16.713 37.309-37.304 37.309-20.59 0-37.308-16.718-37.308-37.309S28.779 12.061 49.37 12.061Zm0 12.93c13.462 0 24.376 10.912 24.376 24.38S62.833 73.751 49.37 73.751c-13.467 0-24.38-10.913-24.38-24.38 0-13.469 10.912-24.382 24.38-24.382Zm0 3.581c-11.489 0-20.798 9.31-20.798 20.798a20.74 20.74 0 0 0 5.865 14.479c2.248-6.07 8.083-10.399 14.932-10.399 6.845 0 12.68 4.329 14.928 10.4a20.73 20.73 0 0 0 5.87-14.48c0-11.488-9.314-20.798-20.798-20.798Zm0 6.874c4.47 0 8.127 3.657 8.127 8.128 0 4.472-3.656 8.128-8.128 8.128s-8.128-3.656-8.128-8.128 3.657-8.128 8.128-8.128Zm34.762-1.34c.373 0 .717.173.941.462l.09.132 4.74 8.213a1.185 1.185 0 0 1-1.03 1.778h-9.481c-.37 0-.717-.172-.942-.462l-.089-.131a1.19 1.19 0 0 1 0-1.185l4.745-8.213c.21-.369.604-.593 1.026-.593ZM30.787 1.398a5.46 5.46 0 0 1 5.46 5.46 5.46 5.46 0 0 1-5.46 5.46 5.46 5.46 0 0 1 0-10.92Z"/></svg>
